<?xml version="1.0" standalone="no"?>
<!DOCTYPE svg PUBLIC "-//W3C//DTD SVG 20010904//EN"
 "http://www.w3.org/TR/2001/REC-SVG-20010904/DTD/svg10.dtd">
<svg version="1.0" xmlns="http://www.w3.org/2000/svg"
 width="500.000000pt" height="500.000000pt" viewBox="0 0 500.000000 500.000000"
 preserveAspectRatio="xMidYMid meet">
<metadata>
Created by potrace 1.11, written by Peter Selinger 2001-2013
</metadata>
<g transform="translate(0.000000,500.000000) scale(0.100000,-0.100000)"
fill="#000000" stroke="none">
<path d="M2815 4979 c-140 -11 -299 -61 -435 -136 -36 -20 -130 -80 -210 -134
-80 -54 -169 -109 -198 -124 -65 -33 -107 -31 -237 10 -74 23 -108 28 -190 28
-67 0 -111 -5 -130 -14 l-30 -15 3 -97 c2 -53 -2 -115 -8 -139 -7 -23 -41 -87
-76 -142 -209 -326 -301 -589 -354 -1011 -12 -93 -28 -215 -36 -270 -19 -138
-30 -370 -17 -362 7 4 12 -15 15 -52 3 -45 11 -68 32 -96 16 -20 35 -39 43
-42 22 -9 54 29 128 152 37 61 86 137 109 170 24 33 52 85 64 115 12 30 41
107 66 171 55 144 96 226 152 305 53 75 100 114 191 157 66 31 71 32 198 31
72 0 156 -6 188 -13 32 -7 198 -59 370 -116 172 -56 368 -115 436 -129 69 -14
132 -32 140 -40 9 -7 26 -17 39 -20 12 -4 22 -11 22 -15 0 -4 21 -20 48 -35
87 -50 281 -174 297 -192 6 -6 21 -17 35 -26 14 -8 67 -55 118 -103 102 -96
122 -102 122 -35 0 22 0 43 -1 46 0 4 14 14 32 22 23 11 39 32 57 70 l24 54
35 -34 c19 -18 40 -46 47 -63 17 -39 49 -67 68 -60 21 8 37 43 42 88 8 82 41
49 52 -51 11 -106 -10 -378 -27 -350 -7 10 -9 8 -10 -7 -1 -22 -1 -22 -13 -85
-12 -68 -51 -218 -74 -282 -11 -31 -18 -59 -15 -62 3 -3 1 -11 -4 -18 -6 -7
-13 -43 -16 -80 -3 -37 -13 -91 -22 -120 -15 -53 -59 -236 -75 -313 -8 -42
-22 -149 -22 -175 1 -8 -8 -64 -19 -123 -33 -179 -91 -339 -161 -439 -10 -14
-18 -29 -18 -32 0 -10 -59 -89 -100 -132 -22 -23 -36 -44 -33 -48 4 -3 1 -6
-6 -6 -11 0 -53 -35 -118 -97 -13 -13 -26 -23 -30 -23 -3 0 -26 -14 -51 -31
-26 -17 -52 -32 -59 -33 -7 -1 -20 -9 -30 -18 -10 -8 -63 -39 -118 -68 -55
-29 -116 -60 -135 -71 -107 -56 -209 -94 -310 -116 -14 -2 -88 -7 -165 -10
-133 -4 -145 -3 -241 25 -55 16 -114 36 -130 45 -16 9 -44 23 -63 32 -19 8
-59 32 -89 53 -30 20 -62 42 -72 47 -9 6 -43 33 -75 60 -133 113 -154 131
-181 152 -48 36 -168 154 -223 218 -29 33 -58 67 -66 75 -61 67 -256 459 -298
600 -6 19 -11 37 -12 40 -1 3 -4 12 -8 20 -18 46 -38 121 -43 160 -8 63 -24
111 -35 105 -5 -4 -9 -15 -9 -25 0 -11 -11 -22 -27 -28 l-28 -10 32 -1 c39 -1
44 -10 71 -116 37 -142 69 -241 102 -320 146 -342 234 -481 434 -680 123 -123
297 -268 394 -329 74 -46 234 -123 292 -139 75 -22 234 -47 295 -47 81 0 249
36 346 75 86 35 277 139 405 220 150 96 271 209 350 326 27 41 52 76 55 79 14
13 85 175 115 261 31 94 55 202 110 499 14 80 39 192 56 250 16 58 35 130 43
160 7 30 13 51 14 45 1 -11 44 77 56 115 5 15 4 20 -4 16 -6 -4 -11 -3 -11 3
0 5 4 13 10 16 5 3 10 14 10 24 0 10 20 79 46 152 77 228 110 373 144 634 6
48 22 96 49 152 72 146 94 237 97 405 1 87 -2 162 -9 184 -8 27 -8 40 1 55 19
29 14 64 -16 132 -48 105 -141 238 -221 317 -126 125 -287 210 -617 328 -208
74 -284 121 -284 172 0 16 20 70 45 121 54 112 52 118 -52 159 -116 45 -236
60 -378 49z m1175 -2918 c0 -6 -4 -13 -10 -16 -5 -3 -10 1 -10 9 0 9 5 16 10
16 6 0 10 -4 10 -9z"/>
<path d="M1770 2520 c-105 -18 -217 -92 -194 -128 10 -15 36 -18 190 -23 197
-6 199 -6 519 -106 214 -66 225 -69 225 -54 0 43 -100 121 -248 195 -209 105
-356 139 -492 116z"/>
<path d="M683 2463 c-4 -11 9 -30 44 -62 62 -57 85 -91 108 -159 21 -65 32
-61 16 5 -17 66 -73 164 -116 202 -41 36 -43 37 -52 14z"/>
<path d="M3525 2253 c-169 -38 -325 -107 -325 -142 0 -11 14 -13 73 -7 363 35
414 35 510 -4 87 -35 90 -35 108 -14 10 13 10 24 0 62 -13 50 -48 95 -93 118
-40 21 -148 16 -273 -13z"/>
<path d="M1725 2060 c-102 -14 -205 -72 -205 -116 0 -12 6 -11 28 8 34 28 130
74 138 65 3 -3 0 -22 -6 -43 -26 -79 16 -233 68 -248 45 -13 151 -35 190 -39
35 -4 41 -3 32 8 -13 16 5 36 50 55 27 11 33 11 48 -4 16 -16 15 -19 -10 -41
-52 -45 -26 -49 37 -5 48 33 90 106 101 178 4 23 10 42 15 42 16 0 90 -97 111
-147 24 -56 38 -67 38 -31 0 66 -107 193 -209 246 -75 40 -149 60 -262 72 -52
5 -96 9 -99 9 -3 -1 -32 -5 -65 -9z m182 -33 c3 -4 -2 -18 -11 -32 -14 -21
-24 -26 -53 -23 -39 3 -60 25 -49 53 5 14 15 17 56 13 28 -3 53 -8 57 -11z"/>
<path d="M3170 2010 c0 -5 4 -10 9 -10 6 0 13 5 16 10 3 6 -1 10 -9 10 -9 0
-16 -4 -16 -10z"/>
<path d="M3085 1910 c3 -5 8 -10 11 -10 2 0 4 5 4 10 0 6 -5 10 -11 10 -5 0
-7 -4 -4 -10z"/>
<path d="M3320 1864 c-63 -13 -222 -84 -235 -103 -3 -6 -13 -7 -22 -4 -10 4
-14 2 -10 -4 4 -6 -3 -8 -19 -5 -20 3 -23 9 -18 26 18 66 18 62 -1 42 -53 -52
-72 -139 -38 -173 19 -19 20 -19 48 19 16 21 32 38 36 38 3 0 12 -20 19 -43
21 -78 43 -94 149 -111 118 -20 121 -20 121 2 0 26 58 52 88 39 27 -12 28 -23
2 -39 -24 -15 -26 -28 -5 -28 26 0 88 64 111 115 18 37 24 68 24 117 l0 67 52
-22 c58 -24 115 -75 124 -112 8 -32 30 -32 38 0 7 29 -2 51 -36 82 -47 45
-188 92 -275 93 -23 0 -45 5 -48 10 -8 13 -25 12 -105 -6z m-50 -59 c-14 -16
-50 -21 -50 -6 0 8 15 14 54 20 5 0 3 -6 -4 -14z"/>
<path d="M2913 1045 c0 -22 2 -30 4 -17 2 12 2 30 0 40 -3 9 -5 -1 -4 -23z"/>
<path d="M2430 965 c0 -35 52 -89 112 -116 41 -18 71 -24 133 -24 112 0 176
29 211 97 21 41 17 48 -6 10 -30 -48 -97 -75 -185 -75 -110 1 -186 37 -221
106 -18 34 -44 36 -44 2z"/>
<path d="M2125 640 c17 -5 55 -15 85 -24 152 -45 312 -67 495 -69 169 -2 265
6 251 21 -4 3 -80 9 -169 14 -89 4 -196 10 -237 13 -41 3 -106 7 -145 10 -38
3 -112 14 -164 25 -95 20 -182 28 -116 10z"/>
</g>
</svg>
